<svg width="35" height="32" viewBox="0 0 35 32" fill="none" xmlns="http://www.w3.org/2000/svg">
<rect width="34.5028" height="32" rx="16" fill="#E8E8E8"/>
<path d="M13.8881 11.1797H14.9247V16.7173C14.9247 17.4657 14.6991 18.0511 14.2479 18.4736C13.8003 18.8962 13.2024 19.1074 12.454 19.1074C11.677 19.1074 11.0718 18.9087 10.6385 18.5112C10.2053 18.1138 9.98865 17.557 9.98865 16.8408H11.0199C11.0199 17.2884 11.1416 17.6375 11.3851 17.8882C11.6322 18.1388 11.9885 18.2642 12.454 18.2642C12.8801 18.2642 13.2238 18.1299 13.4852 17.8613C13.7502 17.5928 13.8845 17.2168 13.8881 16.7334V11.1797ZM16.681 19V11.1797H18.8885C19.5689 11.1797 20.1705 11.3301 20.6932 11.6309C21.216 11.9316 21.6189 12.3595 21.9017 12.9146C22.1882 13.4696 22.3332 14.1069 22.3368 14.8267V15.3262C22.3368 16.0638 22.1936 16.7101 21.9071 17.2651C21.6242 17.8201 21.2178 18.2463 20.6879 18.5435C20.1615 18.8407 19.5474 18.9928 18.8456 19H16.681ZM17.7123 12.0283V18.1567H18.7972C19.5922 18.1567 20.2098 17.9097 20.6503 17.4155C21.0943 16.9214 21.3163 16.2178 21.3163 15.3047V14.8481C21.3163 13.9601 21.1068 13.2708 20.6879 12.7803C20.2725 12.2861 19.6817 12.0355 18.9154 12.0283H17.7123Z" fill="#878B98"/>
</svg>
