<svg width="17" height="4" viewBox="0 0 17 4" fill="none" xmlns="http://www.w3.org/2000/svg">
<path d="M12.1602 2C12.1602 1.46957 12.3709 0.96086 12.7459 0.585787C13.121 0.210714 13.6297 0 14.1602 0C14.6906 0 15.1993 0.210714 15.5744 0.585787C15.9494 0.96086 16.1602 1.46957 16.1602 2C16.1602 2.53043 15.9494 3.03914 15.5744 3.41421C15.1993 3.78929 14.6906 4 14.1602 4C13.6297 4 13.121 3.78929 12.7459 3.41421C12.3709 3.03914 12.1602 2.53043 12.1602 2ZM6.16016 2C6.16016 1.46957 6.37087 0.96086 6.74594 0.585787C7.12102 0.210714 7.62972 0 8.16016 0C8.69059 0 9.1993 0.210714 9.57437 0.585787C9.94944 0.96086 10.1602 1.46957 10.1602 2C10.1602 2.53043 9.94944 3.03914 9.57437 3.41421C9.1993 3.78929 8.69059 4 8.16016 4C7.62972 4 7.12102 3.78929 6.74594 3.41421C6.37087 3.03914 6.16016 2.53043 6.16016 2ZM0.160156 2C0.160156 1.46957 0.37087 0.96086 0.745943 0.585787C1.12102 0.210714 1.62972 0 2.16016 0C2.69059 0 3.1993 0.210714 3.57437 0.585787C3.94944 0.96086 4.16016 1.46957 4.16016 2C4.16016 2.53043 3.94944 3.03914 3.57437 3.41421C3.1993 3.78929 2.69059 4 2.16016 4C1.62972 4 1.12102 3.78929 0.745943 3.41421C0.37087 3.03914 0.160156 2.53043 0.160156 2Z" fill="#E8E8E8"/>
</svg>
